HIERARCHY
ROOT Model_Hips
{
	OFFSET 0.000000 96.915077 0.000000
	CHANNELS 6 Xposition Yposition Zposition Xrotation Yrotation Zrotation
	JOINT Model_Spine
	{
		OFFSET 0.000000 11.137703 -1.289900
		CHANNELS 3 Xrotation Yrotation Zrotation
		JOINT Model_Spine1
		{
			OFFSET 0.000000 12.993942 -1.504922
			CHANNELS 3 Xrotation Yrotation Zrotation
			JOINT Model_Spine2
			{
				OFFSET 0.000000 14.850220 -1.719911
				CHANNELS 3 Xrotation Yrotation Zrotation
				JOINT Model_Neck
				{
					OFFSET 0.000000 16.706543 -1.934903
					CHANNELS 3 Xrotation Yrotation Zrotation
					JOINT Model_Head
					{
						OFFSET 0.000000 10.471298 2.002100
						CHANNELS 3 Xrotation Yrotation Zrotation
						JOINT Model_HeadTop_End
						{
							OFFSET 0.000000 20.842606 3.985100
							CHANNELS 3 Xrotation Yrotation Zrotation
							End Site
							{
								OFFSET 0.000000 21.220154 0.000000
							}
						}
					}
				}
				JOINT Model_LeftShoulder
				{
					OFFSET 7.008500 14.768600 -1.919946
					CHANNELS 3 Xrotation Yrotation Zrotation
					JOINT Model_LeftArm
					{
						OFFSET 14.126271 -3.718048 0.029937
						CHANNELS 3 Xrotation Yrotation Zrotation
						JOINT Model_LeftForeArm
						{
							OFFSET 28.282801 0.000000 0.000000
							CHANNELS 3 Xrotation Yrotation Zrotation
							JOINT Model_LeftHand
							{
								OFFSET 26.204689 0.000000 0.000000
								CHANNELS 3 Xrotation Yrotation Zrotation
								End Site
								{
									OFFSET 26.204704 0.000000 0.000000
								}
							}
						}
					}
				}
				JOINT Model_RightShoulder
				{
					OFFSET -7.008500 14.768555 -1.949840
					CHANNELS 3 Xrotation Yrotation Zrotation
					JOINT Model_RightArm
					{
						OFFSET -14.126281 -3.718018 -0.029932
						CHANNELS 3 Xrotation Yrotation Zrotation
						JOINT Model_RightForeArm
						{
							OFFSET -28.283798 0.000000 -0.000001
							CHANNELS 3 Xrotation Yrotation Zrotation
							JOINT Model_RightHand
							{
								OFFSET -26.204193 0.000000 -0.000001
								CHANNELS 3 Xrotation Yrotation Zrotation
								End Site
								{
									OFFSET -26.204208 0.000000 -0.000001
								}
							}
						}
					}
				}
			}
		}
	}
	JOINT Model_LeftUpLeg
	{
		OFFSET 8.327700 -6.193199 -0.402800
		CHANNELS 3 Xrotation Yrotation Zrotation
		JOINT Model_LeftLeg
		{
			OFFSET 0.735802 -42.108742 -0.610721
			CHANNELS 3 Xrotation Yrotation Zrotation
			JOINT Model_LeftFoot
			{
				OFFSET -0.735806 -36.833748 -0.172876
				CHANNELS 3 Xrotation Yrotation Zrotation
				JOINT Model_LeftToeBase
				{
					OFFSET -0.565857 -11.977769 16.297714
					CHANNELS 3 Xrotation Yrotation Zrotation
					JOINT Model_LeftToe_End
					{
						OFFSET -0.111712 -0.312793 7.857784
						CHANNELS 3 Xrotation Yrotation Zrotation
						End Site
						{
							OFFSET -0.111712 -0.312793 7.857784
						}
					}
				}
			}
		}
	}
	JOINT Model_RightUpLeg
	{
		OFFSET -8.327700 -6.193199 -0.516500
		CHANNELS 3 Xrotation Yrotation Zrotation
		JOINT Model_RightLeg
		{
			OFFSET -0.735785 -42.108738 -0.434061
			CHANNELS 3 Xrotation Yrotation Zrotation
			JOINT Model_RightFoot
			{
				OFFSET 0.735776 -36.833748 -0.021630
				CHANNELS 3 Xrotation Yrotation Zrotation
				JOINT Model_RightToeBase
				{
					OFFSET 0.565817 -11.977745 15.903093
					CHANNELS 3 Xrotation Yrotation Zrotation
					JOINT Model_RightToe_End
					{
						OFFSET 0.111702 -0.312791 7.811342
						CHANNELS 3 Xrotation Yrotation Zrotation
						End Site
						{
							OFFSET 0.111702 -0.312791 7.811342
						}
					}
				}
			}
		}
	}
}
MOTION
Frames: 14
Frame Time: 0.016667
-0.698000 93.900833 2.678952 7.472503 1.571896 2.433744 1.883673 -1.009356 0.462377 3.762583 -1.875194 0.245904 3.762580 -1.875193 0.245901 3.636004 -0.534801 2.084380 3.635995 -0.534799 2.084375 0.000001 -0.000000 -0.000000 -2.925413 -6.787126 -9.283485 21.833690 -13.016746 -62.178613 82.092262 -68.283689 94.999967 -0.000003 -0.000000 0.000000 -1.417190 3.693821 16.071493 8.178310 23.645608 52.333866 91.241792 43.665693 -102.875886 0.000003 -0.000000 0.000001 -22.574112 3.829611 9.043206 77.865051 -8.384765 1.785110 -7.017502 1.106874 -11.240037 2.993797 15.752308 -16.665069 -0.000003 -0.000000 0.000003 -4.064616 -1.331580 11.835237 31.739148 -5.809025 -8.326846 -17.545130 0.818637 -5.356563 -24.462794 -6.624160 1.434512 -0.000000 0.000000 0.000000 
-0.512786 95.326195 5.059648 8.097664 1.225011 3.116986 1.774644 -0.598287 0.407164 3.548409 -1.098167 0.205783 3.548402 -1.098167 0.205783 3.732584 -0.652502 2.131183 3.732580 -0.652502 2.131184 -0.000001 0.000000 -0.000001 -2.779120 -6.746659 -8.350880 24.254157 -13.602544 -61.038648 85.526707 -67.861304 99.600318 -0.000002 0.000001 0.000002 -1.493406 4.652667 16.185766 7.072409 26.097176 52.409257 92.024150 43.556219 -104.344370 0.000003 0.000002 0.000001 -23.741954 3.931864 7.621044 72.038094 -7.419753 1.425863 -8.982672 1.164250 -9.822084 3.963126 14.266914 -15.707135 0.000004 -0.000002 0.000003 -1.335279 -2.549168 9.342031 26.639462 -2.692610 -6.732901 -12.137922 0.606611 -5.846332 -20.618043 -5.071225 0.354852 0.000000 -0.000000 0.000000 
-0.293618 96.716568 7.437111 8.697954 0.977188 3.833587 1.697765 -0.283780 0.348815 3.397077 -0.509810 0.195267 3.397085 -0.509810 0.195267 3.646787 -0.757851 2.145148 3.646803 -0.757849 2.145148 -0.000001 0.000000 0.000001 -2.675104 -6.718531 -7.683958 26.231396 -13.960912 -59.961541 88.723761 -67.798903 103.742944 0.000001 -0.000003 0.000003 -1.580290 5.598855 16.423878 6.224375 28.456554 52.084605 92.396272 42.874388 -105.365428 0.000006 -0.000001 0.000001 -24.353545 3.965726 6.030465 64.951848 -6.853985 1.164142 -10.315601 1.221453 -8.973784 4.482932 13.400751 -15.220108 -0.000001 -0.000000 -0.000001 1.223857 -4.120844 7.420252 21.392813 0.424819 -5.982009 -5.810517 0.316610 -6.371883 -24.278790 -3.312364 0.043410 -0.000000 -0.000000 0.000000 
-0.044599 97.864723 9.731769 9.394681 0.859093 4.553230 1.645431 -0.021431 0.284602 3.293292 -0.018232 0.199969 3.293298 -0.018232 0.199970 3.200771 -0.886359 2.098202 3.200780 -0.886360 2.098205 0.000001 -0.000000 -0.000001 -2.611161 -6.697663 -7.274854 27.702568 -14.139894 -58.960413 92.038930 -68.034066 107.829105 -0.000003 0.000001 -0.000002 -1.650239 6.429090 16.522588 5.701767 30.610668 51.603326 92.781720 42.357142 -106.542099 -0.000000 -0.000000 0.000001 -24.805160 3.895360 4.349897 57.037465 -6.193110 1.041305 -10.484217 1.284069 -8.722650 3.929091 12.770384 -14.550610 -0.000003 -0.000001 -0.000001 3.413531 -5.551029 5.767201 16.428663 3.207992 -5.336325 0.532887 -0.030657 -6.495652 -27.994444 -1.616193 -0.199717 0.000001 -0.000000 0.000000 
0.198224 98.731636 11.986963 10.272410 0.860693 5.202009 1.579088 0.240844 0.220823 3.160359 0.485920 0.201655 3.160357 0.485920 0.201656 2.445170 -1.056123 2.035707 2.445160 -1.056121 2.035699 0.000001 0.000000 0.000000 -2.581515 -6.697838 -7.081738 28.656007 -14.206592 -58.007984 95.350295 -68.301161 111.770841 -0.000003 0.000001 -0.000001 -1.682019 7.040746 16.358931 5.457135 32.423909 51.169499 93.583045 42.606925 -108.286666 0.000002 -0.000000 -0.000000 -25.242217 3.781865 2.777473 48.424771 -5.455349 0.997681 -9.135874 1.263455 -8.709162 1.601095 12.312445 -12.623981 -0.000002 0.000001 0.000000 5.610916 -6.431859 4.621169 11.070619 4.935583 -5.137316 7.020252 -0.371035 -5.703475 -31.673196 -0.087942 -0.621816 0.000000 -0.000000 0.000000 
0.394671 99.395264 14.275072 11.281862 0.893823 5.736117 1.484536 0.533219 0.151834 2.970155 1.063941 0.179142 2.970151 1.063942 0.179145 1.825383 -1.267083 2.034298 1.825369 -1.267083 2.034298 0.000001 0.000000 0.000001 -2.573199 -6.729065 -7.027372 29.172865 -14.183234 -57.081226 98.311824 -68.300621 115.260357 -0.000004 0.000001 -0.000001 -1.679039 7.426109 16.022495 5.324072 33.779124 50.880152 94.979545 43.683137 -110.596643 -0.000001 -0.000001 -0.000000 -25.432068 3.768382 1.523540 38.958002 -5.069427 0.858391 -6.448588 1.087556 -8.610775 -1.546169 11.920467 -10.182717 -0.000001 0.000002 -0.000000 5.580212 -6.672750 3.510959 9.957726 4.200817 -5.561513 12.046738 -0.339211 -2.355134 -35.198782 1.906357 -2.202239 0.000001 -0.000000 0.000000 
0.536910 99.841972 16.633369 12.231767 0.848310 6.167841 1.380071 0.845064 0.072415 2.759819 1.692386 0.114216 2.759821 1.692384 0.114214 1.220770 -1.482947 2.150489 1.220781 -1.482949 2.150491 0.000001 -0.000000 -0.000001 -2.570025 -6.798485 -7.001509 29.415589 -14.070820 -56.184504 100.657830 -67.878946 118.087564 0.000002 -0.000000 0.000000 -1.670537 7.676578 15.745311 5.129970 34.633092 50.717880 96.776950 45.076636 -113.070797 -0.000000 -0.000001 -0.000000 -25.072096 3.978154 0.688435 28.779661 -5.404981 0.439563 -3.111708 0.789416 -8.450136 -2.554679 11.313472 -10.228501 -0.000001 -0.000001 0.000000 4.954972 -6.322357 2.443302 10.067548 1.228780 -6.473035 17.541862 0.233111 2.502835 -40.062574 3.814722 -3.740196 -0.000000 0.000000 0.000000 
0.639764 100.017517 19.070381 12.897202 0.695170 6.537771 1.297038 1.125430 -0.013938 2.592847 2.261972 0.008556 2.592852 2.261974 0.008557 0.738079 -1.671833 2.395303 0.738112 -1.671835 2.395323 0.000002 0.000001 -0.000000 -2.553078 -6.917487 -6.885035 29.558347 -13.887649 -55.333429 102.402984 -67.127393 120.314971 -0.000003 0.000000 -0.000000 -1.690260 7.916272 15.780281 4.814144 35.045444 50.588780 98.478098 46.131207 -115.147113 0.000004 -0.000002 -0.000001 -23.937965 4.430590 0.165350 18.236416 -6.414966 -0.246141 0.353836 0.419101 -8.547702 -2.090551 10.539602 -11.320747 -0.000001 -0.000001 0.000001 3.699495 -5.678977 1.948719 13.784280 -2.309733 -7.629715 18.576581 0.274570 3.240486 -38.427488 1.656249 -1.651654 -0.000001 0.000000 0.000000 
0.718084 99.919670 21.580759 13.138909 0.520554 6.875574 1.257793 1.304229 -0.100376 2.513734 2.637228 -0.104220 2.513734 2.637228 -0.104221 0.461370 -1.810539 2.715981 0.461363 -1.810540 2.715970 0.000000 0.000000 0.000001 -2.514782 -7.099884 -6.618877 29.676451 -13.681861 -54.531530 103.763319 -66.342427 122.141814 -0.000002 -0.000001 0.000000 -1.759312 8.221442 16.260244 4.436929 35.147501 50.417892 99.666134 46.517106 -116.485010 0.000002 0.000000 -0.000000 -22.295918 4.998802 -0.196856 8.474579 -7.741348 -1.105825 3.639938 -0.013381 -9.016826 -1.921178 9.717898 -11.025645 0.000001 -0.000001 -0.000001 2.057247 -4.884835 1.621107 19.781165 -6.113000 -8.904635 17.779110 0.176785 3.270935 -32.714096 -1.473838 2.291967 0.000002 0.000001 -0.000000 
0.783226 99.587341 24.152821 12.929198 0.424952 7.137426 1.268859 1.353609 -0.142829 2.536067 2.745399 -0.172073 2.536062 2.745394 -0.172075 0.352442 -1.888380 3.016335 0.352426 -1.888384 3.016329 -0.000000 0.000000 0.000001 -2.456486 -7.358713 -6.251002 29.663870 -13.524167 -53.780162 104.860083 -65.867284 123.580348 0.000005 -0.000000 0.000000 -1.874911 8.577380 17.128041 4.099994 35.058429 50.225492 100.338710 46.393240 -117.185842 0.000001 0.000001 0.000002 -23.339667 5.551398 -0.221288 6.675487 -9.544595 -1.912813 3.646729 -0.071635 -9.107592 -1.260183 8.533273 -10.551543 0.000000 0.000000 -0.000001 1.209927 -4.105018 1.685066 25.425769 -9.273688 -10.456148 16.682606 0.078277 3.115225 -22.632795 -3.171336 7.129465 -0.000002 0.000001 -0.000001 
0.832522 99.078194 26.755745 12.300526 0.441879 7.342551 1.337072 1.290472 -0.159867 2.671328 2.620454 -0.167687 2.671326 2.620451 -0.167690 0.476074 -1.921817 3.209850 0.476053 -1.921818 3.209854 0.000001 -0.000000 0.000000 -2.401879 -7.700216 -5.904198 29.269686 -13.500867 -53.104471 105.500065 -65.946836 124.282518 -0.000003 0.000000 -0.000002 -2.012655 8.889257 18.190780 3.878116 34.817753 50.109959 100.795274 46.215099 -117.588919 0.000002 0.000000 -0.000002 -23.599381 5.948601 -0.317683 5.800821 -10.995196 -2.471033 4.421194 -0.251053 -8.787491 -0.539263 7.058621 -9.774872 -0.000000 0.000000 0.000000 0.921281 -3.313919 1.770082 31.028279 -11.413635 -11.513897 15.491427 -0.024622 2.593911 -10.308638 -1.858248 8.044226 0.000005 0.000001 -0.000001 
0.864629 98.437164 29.342485 11.291764 0.516343 7.576034 1.477859 1.167303 -0.168973 2.951119 2.366440 -0.128696 2.951118 2.366439 -0.128698 0.698143 -1.931355 3.281307 0.698138 -1.931354 3.281307 0.000001 -0.000000 -0.000000 -2.372215 -8.124234 -5.718072 28.259004 -13.708972 -52.547172 105.201715 -66.667455 123.656299 0.000005 -0.000000 0.000002 -2.139319 9.036501 19.245999 3.799822 34.379477 50.173221 101.350069 46.488788 -117.941630 -0.000000 0.000001 0.000001 -23.124377 6.094123 -0.593967 6.267888 -11.903611 -2.690460 5.207461 -0.400963 -7.662735 0.133154 5.469305 -8.795676 0.000000 0.000000 0.000000 0.914390 -2.530046 1.709554 36.854041 -12.542410 -11.957464 14.535389 -0.115187 1.746968 -3.064469 -0.874635 1.090340 0.000002 -0.000001 -0.000001 
0.900379 97.635826 31.888529 9.942477 0.499869 7.895386 1.693352 1.046377 -0.188436 3.380191 2.101823 -0.092320 3.380191 2.101826 -0.092318 0.964706 -1.936417 3.281579 0.964678 -1.936413 3.281573 -0.000001 0.000000 0.000000 -2.391812 -8.616090 -5.827337 26.578984 -14.230410 -52.129291 103.450400 -67.950868 121.172310 0.000001 -0.000001 0.000001 -2.229320 8.941999 20.177624 3.844835 33.668734 50.465983 101.979362 47.372307 -118.116647 0.000001 -0.000002 -0.000002 -21.928088 5.935054 -1.088436 8.122371 -12.162443 -2.564672 4.948726 -0.376777 -5.708211 0.764962 4.011675 -7.831736 0.000000 0.000000 0.000001 0.957163 -1.866854 1.428633 43.045908 -12.990750 -12.008451 13.996639 -0.187301 0.713180 -2.469157 -0.959185 0.289467 -0.000003 -0.000000 -0.000000 
0.960812 96.653503 34.384975 8.325257 0.257651 8.375725 1.970522 0.949151 -0.244525 3.932824 1.867303 -0.108004 3.932826 1.867304 -0.108005 1.228970 -1.934301 3.288593 1.228963 -1.934301 3.288590 -0.000001 0.000000 -0.000000 -2.490580 -9.157628 -6.379416 24.382742 -15.077246 -51.831959 100.067210 -69.615897 116.708508 0.000001 -0.000002 0.000001 -2.276642 8.618197 20.967923 3.942693 32.662948 50.966977 102.227510 48.581790 -117.591242 -0.000002 0.000001 0.000001 -19.655628 5.422274 -1.921893 10.092311 -11.679945 -2.173330 3.568603 -0.225280 -3.357198 -1.244862 3.196648 -4.461514 0.000000 0.000000 -0.000000 0.894625 -1.389970 0.742558 49.546356 -13.305603 -11.796385 13.834380 -0.253097 -0.364185 -2.566277 -0.858911 0.162999 0.000000 -0.000001 -0.000000 
